<svg width="40" height="40" viewBox="0 0 40 40" fill="none" xmlns="http://www.w3.org/2000/svg">
<g clip-path="url(#clip0_116_4867)">
<path d="M37.35 15.6383L35.1266 15.2477C34.8474 14.3552 34.4895 13.4893 34.057 12.6602L35.3524 10.8141C36.2472 9.54117 36.0962 7.80899 34.9945 6.71016L33.2891 5.00469C32.1902 3.90305 30.4581 3.75203 29.1852 4.64688L27.3383 5.94219C26.5092 5.50971 25.6433 5.15179 24.7508 4.87266L24.3602 2.64922C24.0913 1.11766 22.7613 0.000470912 21.2063 2.16173e-06H18.7938C17.2375 -0.00179471 15.9059 1.1168 15.6391 2.65L15.2484 4.87266C14.3559 5.15171 13.49 5.50963 12.6609 5.94219L10.8148 4.64688C9.54196 3.75203 7.80977 3.90305 6.71094 5.00469L5.00469 6.71094C3.90305 7.80977 3.75203 9.54196 4.64688 10.8148L5.94141 12.6609C5.50893 13.49 5.15101 14.356 4.87188 15.2484L2.64922 15.6391C1.11633 15.9063 -0.00179471 17.2378 2.16263e-06 18.7938V21.2063C0.000158413 22.7618 1.11781 24.0923 2.65 24.3609L4.87266 24.7516C5.15171 25.6441 5.50963 26.51 5.94219 27.3391L4.64688 29.1852C3.75203 30.4581 3.90305 32.1902 5.00469 33.2891L6.71094 34.9953C7.80977 36.097 9.54196 36.248 10.8148 35.3531L12.6609 34.0586C13.49 34.4912 14.3559 34.8491 15.2484 35.1281L15.6391 37.3516C15.9066 38.8841 17.2381 40.0019 18.7938 40H21.2063C22.7622 40.0018 24.0938 38.8837 24.3609 37.3508C24.4581 36.7983 24.0888 36.2717 23.5363 36.1746C22.9838 36.0775 22.4573 36.4467 22.3602 36.9992C22.3126 37.2707 22.1708 37.5168 21.9597 37.6941C21.7487 37.8714 21.4819 37.9687 21.2063 37.9688H18.7938C18.518 37.9689 18.251 37.8717 18.0398 37.6943C17.8286 37.517 17.6867 37.2709 17.6391 36.9992L17.1398 34.1531C17.1067 33.9631 17.0201 33.7864 16.8902 33.6437C16.7603 33.5011 16.5924 33.3984 16.4063 33.3477C15.2515 33.0387 14.1421 32.5801 13.1063 31.9836C12.9384 31.8863 12.7461 31.8392 12.5523 31.8478C12.3585 31.8564 12.1711 31.9203 12.0125 32.032L9.64922 33.6898C9.42348 33.8481 9.14917 33.9217 8.87454 33.8977C8.59991 33.8737 8.34253 33.7536 8.14766 33.5586L6.44141 31.8523C6.24641 31.6575 6.12635 31.4001 6.10234 31.1255C6.07834 30.8508 6.15192 30.5765 6.31016 30.3508L7.96875 27.9883C8.08047 27.8297 8.14441 27.6423 8.153 27.4485C8.16158 27.2547 8.11445 27.0624 8.01719 26.8945C7.42021 25.8584 6.96112 24.7488 6.65157 23.5938C6.6015 23.4069 6.49909 23.2382 6.35639 23.1075C6.2137 22.9769 6.03666 22.8897 5.8461 22.8563L3.00078 22.357C2.7298 22.3095 2.48417 22.1682 2.30692 21.9578C2.12966 21.7474 2.03207 21.4814 2.03125 21.2063V18.7938C2.03134 18.5181 2.12859 18.2513 2.30591 18.0403C2.48323 17.8292 2.72928 17.6874 3.00078 17.6398L5.84688 17.1406C6.03691 17.1073 6.21351 17.0205 6.35602 16.8905C6.49852 16.7604 6.60104 16.5925 6.65157 16.4063C6.96095 15.2513 7.41977 14.1417 8.01641 13.1055C8.11367 12.9376 8.1608 12.7453 8.15221 12.5515C8.14363 12.3577 8.07969 12.1704 7.96797 12.0117L6.31016 9.64922C6.15192 9.42348 6.07834 9.14917 6.10234 8.87454C6.12635 8.59991 6.24641 8.34253 6.44141 8.14766L8.14766 6.44141C8.34253 6.24641 8.59991 6.12635 8.87454 6.10234C9.14917 6.07834 9.42348 6.15192 9.64922 6.31016L12.0117 7.96875C12.1704 8.08047 12.3577 8.14441 12.5515 8.153C12.7453 8.16158 12.9376 8.11445 13.1055 8.01719C14.1416 7.4204 15.2512 6.96156 16.4063 6.65235C16.5931 6.60228 16.7618 6.49987 16.8925 6.35718C17.0231 6.21448 17.1103 6.03744 17.1438 5.84688L17.643 3.00078C17.6905 2.7298 17.8318 2.48417 18.0422 2.30692C18.2526 2.12966 18.5186 2.03207 18.7938 2.03125H21.2063C21.482 2.03116 21.749 2.12832 21.9602 2.30566C22.1714 2.483 22.3133 2.72914 22.3609 3.00078L22.8602 5.84688C22.8933 6.03695 22.9799 6.21365 23.1098 6.3563C23.2397 6.49895 23.4076 6.60164 23.5938 6.65235C24.7484 6.9618 25.8578 7.42062 26.8938 8.01719C27.0616 8.11445 27.2539 8.16158 27.4477 8.153C27.6416 8.14441 27.8289 8.08047 27.9875 7.96875L30.3508 6.31094C30.5765 6.1527 30.8508 6.07912 31.1255 6.10312C31.4001 6.12713 31.6575 6.24719 31.8523 6.44219L33.5586 8.14844C33.7536 8.34331 33.8737 8.60069 33.8977 8.87532C33.9217 9.14995 33.8481 9.42426 33.6898 9.65L32.0313 12.0125C31.9195 12.1711 31.8556 12.3585 31.847 12.5523C31.8384 12.7461 31.8856 12.9384 31.9828 13.1063C32.5793 14.1422 33.0381 15.2516 33.3477 16.4063C33.3979 16.593 33.5003 16.7615 33.643 16.892C33.7857 17.0225 33.9627 17.1096 34.1531 17.143L36.9992 17.6422C37.2703 17.6897 37.5161 17.8312 37.6933 18.0417C37.8706 18.2523 37.9681 18.5185 37.9688 18.7938V21.2063C37.9689 21.482 37.8717 21.749 37.6943 21.9602C37.517 22.1714 37.2709 22.3133 36.9992 22.3609C36.4467 22.4581 36.0775 22.9846 36.1746 23.5371C36.2717 24.0896 36.7983 24.4588 37.3508 24.3617C38.8839 24.0945 40.0022 22.7625 40 21.2063V18.7938C40.0002 17.238 38.8824 15.907 37.35 15.6383Z" fill="white"/>
<path d="M37.115 30.5883L30.6181 23.8938C30.1983 23.4635 29.8768 22.9474 29.6757 22.3809C29.4747 21.8145 29.3987 21.2112 29.4533 20.6125C29.9195 15.2787 25.9737 10.5768 20.6398 10.1106C20.0735 10.0611 19.5039 10.0614 18.9376 10.1118C18.4939 10.1479 18.0769 10.3386 17.7595 10.6508C16.9872 11.4104 16.9754 12.6516 17.733 13.4258L20.5322 16.2797C21.1011 16.8592 21.0926 17.79 20.5131 18.3589L20.5126 18.3594L18.3455 20.4852C17.7657 21.0536 16.8351 21.0444 16.2665 20.4649L13.4673 17.611C12.7078 16.8387 11.4665 16.8268 10.6923 17.5844C10.3736 17.8957 10.1745 18.3091 10.1298 18.7524C9.55389 24.0754 13.4022 28.8575 18.7253 29.4335C19.2908 29.4947 19.8607 29.506 20.4283 29.4672C21.0266 29.4243 21.6271 29.5114 22.1885 29.7226C22.7499 29.9338 23.2589 30.2641 23.6806 30.6907L30.1736 37.3805C30.5643 37.7831 31.2073 37.7927 31.6099 37.402C32.0125 37.0113 32.0221 36.3682 31.6314 35.9657L25.1345 29.2719C24.5074 28.6348 23.7496 28.1412 22.9135 27.8249C22.0773 27.5087 21.1825 27.3773 20.2908 27.4399C16.0683 27.7293 12.4108 24.5409 12.1215 20.3185C12.0948 19.9296 12.0979 19.5392 12.1306 19.1508L14.815 21.8852C15.1363 22.2145 15.5197 22.4768 15.9431 22.6569C16.3664 22.837 16.8213 22.9313 17.2814 22.9344H17.3158C18.2322 22.9372 19.1127 22.5781 19.7658 21.9352L21.933 19.8094C23.3134 18.4552 23.3348 16.2384 21.9806 14.8579L19.2962 12.1235C23.5195 11.8476 27.1669 15.0476 27.4428 19.2709C27.4682 19.66 27.4639 20.0506 27.4299 20.4391C27.35 21.3285 27.4636 22.2246 27.763 23.0659C28.0624 23.9072 28.5404 24.6736 29.1643 25.3125L35.6573 32.0032C36.048 32.4057 36.691 32.4154 37.0936 32.0247C37.4961 31.634 37.5057 30.9909 37.115 30.5883Z" fill="white"/>
</g>
<defs>
<clipPath id="clip0_116_4867">
<rect width="40" height="40" fill="white"/>
</clipPath>
</defs>
</svg>
