<svg width="40" height="40" viewBox="0 0 40 40" fill="none" xmlns="http://www.w3.org/2000/svg">
<g clip-path="url(#clip0_116_4777)">
<path d="M37.8218 21.4005V14.2431L33.4951 13.213C33.2995 12.6409 33.0676 12.0818 32.8008 11.5392L35.1324 7.75042L30.0713 2.68935L26.2825 5.02099C25.7399 4.75416 25.1809 4.52224 24.6088 4.32665L23.5787 0H16.4214L15.3912 4.32665C14.8191 4.52224 14.2601 4.75416 13.7176 5.02099L9.92872 2.68935L4.86757 7.75042L7.19913 11.5392C6.93232 12.0818 6.7004 12.6409 6.5048 13.213L2.17822 14.243V21.4004L6.50488 22.4306C6.70048 23.0027 6.93239 23.5617 7.19921 24.1043L4.85664 27.911L8.36587 31.2722C7.99204 32.3929 7.80163 33.5666 7.80199 34.748V40H32.3564V34.748C32.3564 33.599 32.1763 32.4668 31.8291 31.3868L35.1152 27.8651L32.8009 24.1044C33.0677 23.5618 33.2996 23.0028 33.4952 22.4307L37.8218 21.4005ZM29.9802 37.6238H10.1782V34.748C10.1782 33.1 10.6478 31.4952 11.5362 30.1071C13.1265 27.6221 15.8373 26.1386 18.7876 26.1386H21.3709C24.3211 26.1386 27.0319 27.6221 28.6223 30.107C29.5098 31.4921 29.9811 33.1029 29.9802 34.748V37.6238ZM20.0792 23.6634C17.0493 23.6634 14.5842 21.1983 14.5842 18.1683C14.5842 15.1384 17.0493 12.6733 20.0792 12.6733C23.1092 12.6733 25.5743 15.1384 25.5743 18.1683C25.5743 21.1983 23.1092 23.6634 20.0792 23.6634ZM32.1423 27.5681L30.7606 29.0487C30.7155 28.9743 30.6707 28.8996 30.6237 28.8261C29.2609 26.6968 27.2528 25.145 24.941 24.3545C26.7724 22.912 27.9504 20.6752 27.9504 18.1683C27.9504 13.8281 24.4193 10.297 20.0791 10.297C15.7389 10.297 12.2078 13.8281 12.2078 18.1683C12.2078 20.6752 13.3858 22.912 15.2173 24.3545C12.9054 25.145 10.8974 26.6968 9.53458 28.8261C9.49799 28.8833 9.46353 28.9416 9.42804 28.9994L7.88587 27.5222L9.94044 24.1835L8.38638 20.436L4.55446 19.5236V16.1199L8.38646 15.2075L9.94052 11.46L7.87494 8.10352L10.2817 5.69679L13.6383 7.76238L17.3857 6.20832L18.2982 2.37624H21.7019L22.6143 6.20824L26.3617 7.76238L29.7183 5.69679L32.125 8.10352L30.0594 11.46L31.6135 15.2075L35.4455 16.1199V19.5236L31.6135 20.436L30.0594 24.1834L32.1423 27.5681Z" fill="white"/>
</g>
<defs>
<clipPath id="clip0_116_4777">
<rect width="40" height="40" fill="white"/>
</clipPath>
</defs>
</svg>
