<svg width="108" height="108" viewBox="0 0 108 108" fill="none" xmlns="http://www.w3.org/2000/svg">
<path d="M101.368 43.6002H99.7116V39.0956C99.7116 33.9013 95.4857 29.6756 90.2914 29.6756H87.9417C86.9446 25.9741 83.5604 23.2414 79.5481 23.2414C74.7548 23.2414 70.8552 27.1408 70.8552 31.9341V46.3194H37.1446V31.9341C37.1446 27.1408 33.245 23.2414 28.4519 23.2414C24.4398 23.2414 21.0556 25.9741 20.0585 29.6756H17.7086C12.5143 29.6756 8.28837 33.9013 8.28837 39.0956V43.6002H6.63188C2.97506 43.6002 0 46.5755 0 50.2321V57.7434C0 61.4002 2.97506 64.375 6.63188 64.375H8.28858V68.9036C8.28858 74.098 12.5145 78.3237 17.7088 78.3237H20.0587C21.0558 82.0252 24.4401 84.7579 28.4521 84.7579C33.2454 84.7579 37.1448 80.8585 37.1448 76.0652V61.6799H66.0431C66.917 61.6799 67.6251 60.9717 67.6251 60.0978C67.6251 59.2239 66.917 58.5158 66.0431 58.5158H37.1446V49.4833H70.8552V76.0654C70.8552 80.8587 74.7548 84.7581 79.5481 84.7581C83.5604 84.7581 86.9446 82.0254 87.9417 78.3239H90.2914C95.4857 78.3239 99.7116 74.0982 99.7116 68.9038V64.3752H101.368C105.025 64.3752 108 61.4004 108 57.7436V50.2323C108 46.5753 105.025 43.6002 101.368 43.6002ZM8.28858 61.2114H6.63188C4.71973 61.2114 3.16406 59.6555 3.16406 57.7436V50.2323C3.16406 48.3201 4.71973 46.7645 6.63188 46.7645H8.28858V61.2114ZM33.9806 76.0654C33.9806 79.1138 31.5004 81.5941 28.4519 81.5941C25.4032 81.5941 22.9232 79.1138 22.9232 76.0654V44.1455C22.9232 43.7259 22.7565 43.3235 22.4598 43.0268C22.1632 42.7301 21.7608 42.5634 21.3412 42.5634C20.9216 42.5634 20.5192 42.7301 20.2225 43.0268C19.9258 43.3235 19.7591 43.7259 19.7591 44.1455V75.16H17.7088C14.2592 75.16 11.4526 72.3535 11.4526 68.9041V39.0954C11.4526 35.6458 14.2592 32.8394 17.7088 32.8394H19.7591V37.1367C19.7591 37.5562 19.9258 37.9586 20.2225 38.2553C20.5192 38.552 20.9216 38.7187 21.3412 38.7187C21.7608 38.7187 22.1632 38.552 22.4598 38.2553C22.7565 37.9586 22.9232 37.5562 22.9232 37.1367V31.9339C22.9232 28.8854 25.4034 26.4052 28.4519 26.4052C31.5006 26.4052 33.9806 28.8854 33.9806 31.9339V76.0654ZM85.077 76.0654C85.077 79.1138 82.5968 81.5941 79.5481 81.5941C76.4994 81.5941 74.0192 79.1138 74.0192 76.0654V31.9339C74.0192 28.8854 76.4994 26.4052 79.5481 26.4052C82.5968 26.4052 85.077 28.8854 85.077 31.9339V76.0654ZM96.5476 68.9038C96.5476 72.3533 93.7411 75.1598 90.2914 75.1598H88.2411V32.8394H90.2914C93.7411 32.8394 96.5476 35.646 96.5476 39.0954V68.9038ZM104.836 57.7436C104.836 59.6555 103.28 61.2112 101.368 61.2112H99.7116V46.7643H101.368C103.28 46.7643 104.836 48.3199 104.836 50.2321V57.7436Z" fill="#5ADFC2"/>
</svg>
