<svg width="26" height="26" viewBox="0 0 26 26" fill="none" xmlns="http://www.w3.org/2000/svg">
<g id="Frame" clip-path="url(#clip0_93_1112)">
<g id="Group">
<path id="Vector" d="M25.665 20.6373L15.0002 2.95055C14.5801 2.25378 13.8136 1.82092 13 1.82092C12.1863 1.82092 11.4199 2.25378 10.9996 2.9506L0.334925 20.6373C-0.0993057 21.3574 -0.112153 22.2597 0.301358 22.992C0.714972 23.7242 1.49426 24.1791 2.3352 24.1791H23.6647C24.5057 24.1791 25.285 23.7242 25.6986 22.9919C26.1121 22.2596 26.0993 21.3573 25.665 20.6373ZM24.2247 22.1596C24.1686 22.2587 24.0872 22.3412 23.9888 22.3986C23.8905 22.456 23.7786 22.4863 23.6647 22.4864H2.3352C2.22132 22.4863 2.1095 22.456 2.01115 22.3986C1.91279 22.3412 1.83142 22.2587 1.77533 22.1596C1.71942 22.0604 1.69081 21.9481 1.69243 21.8343C1.69404 21.7204 1.72582 21.609 1.78453 21.5114L12.4494 3.8247C12.5068 3.73005 12.5876 3.65174 12.6841 3.59728C12.7805 3.54283 12.8893 3.51405 13 3.51372C13.224 3.51372 13.435 3.6329 13.5506 3.8247L24.2154 21.5114C24.2741 21.609 24.3059 21.7204 24.3076 21.8342C24.3092 21.9481 24.2806 22.0604 24.2247 22.1596Z" fill="#FF0000"/>
<path id="Vector_2" d="M13.008 8.78552C12.3641 8.78552 11.8615 9.13104 11.8615 9.74356C11.8615 11.6124 12.0814 14.2979 12.0814 16.1668C12.0814 16.6537 12.5055 16.8578 13.008 16.8578C13.3849 16.8578 13.9189 16.6537 13.9189 16.1668C13.9189 14.298 14.1387 11.6125 14.1387 9.74356C14.1387 9.13109 13.6205 8.78552 13.008 8.78552ZM13.0238 17.9414C12.3328 17.9414 11.8145 18.4911 11.8145 19.1507C11.8145 19.7946 12.3327 20.36 13.0238 20.36C13.6677 20.36 14.2174 19.7946 14.2174 19.1507C14.2174 18.4911 13.6676 17.9414 13.0238 17.9414Z" fill="#FF0000"/>
</g>
</g>
<defs>
<clipPath id="clip0_93_1112">
<rect width="26" height="26" fill="white"/>
</clipPath>
</defs>
</svg>
