<svg width="20" height="20" viewBox="0 0 20 20" fill="none" xmlns="http://www.w3.org/2000/svg">
<g id="Frame" clip-path="url(#clip0_54_1551)">
<g id="Group">
<path id="Vector" d="M18.692 4.34291L19.295 3.82031C19.4249 4.03019 19.5 4.27739 19.5 4.5417V15.7917C19.5 16.5495 18.8828 17.1667 18.125 17.1667H1.87501C1.11721 17.1667 0.5 16.5495 0.5 15.7917V4.5417C0.5 4.2774 0.575075 4.03021 0.705007 3.82034L1.30794 4.34291L9.67253 11.5925L10 11.8763L10.3275 11.5925L18.692 4.34291ZM19.2871 3.80778L18.5568 3.50352C18.4258 3.44891 18.2798 3.41668 18.125 3.41668L1.87497 3.41668L1.87417 3.41668C1.72579 3.41692 1.57893 3.44658 1.44209 3.50396L0.711231 3.81038C0.954999 3.42402 1.3857 3.16669 1.87501 3.16669H18.125C18.6132 3.16669 19.0431 3.42287 19.2871 3.80778ZM1.57746 4.90786L0.749995 4.19072V5.2857V15.7917C0.749995 16.4127 1.25405 16.9167 1.87501 16.9167H18.125C18.746 16.9167 19.2499 16.4127 19.25 15.7918V15.7917V5.2857V4.19072L18.4225 4.90786L10.0824 12.136C10.0824 12.136 10.0823 12.136 10.0823 12.1361C10.0585 12.1566 10.0299 12.1667 10 12.1667C9.9702 12.1667 9.94154 12.1566 9.91767 12.136C9.91763 12.136 9.91759 12.136 9.91755 12.1359L1.57746 4.90786Z" stroke="#575757"/>
</g>
</g>
<defs>
<clipPath id="clip0_54_1551">
<rect width="20" height="20" fill="white"/>
</clipPath>
</defs>
</svg>
