<svg width="40" height="40" viewBox="0 0 40 40" fill="none" xmlns="http://www.w3.org/2000/svg">
<path d="M37.6 6.40002H2.4C1.0768 6.40002 0 7.47682 0 8.80002V31.2C0 32.5232 1.0768 33.6 2.4 33.6H37.6C38.9232 33.6 40 32.5232 40 31.2V8.80002C40 7.47682 38.9232 6.40002 37.6 6.40002ZM38.4 31.2C38.4 31.64 38.04 32 37.6 32H2.4C1.95844 32 1.6 31.64 1.6 31.2V8.80002C1.6 8.35838 1.95844 8.00002 2.4 8.00002H37.6C38.04 8.00002 38.4 8.35838 38.4 8.80002V31.2Z" fill="white"/>
<path d="M0.799805 13.6H39.1998V16.8H0.799805V13.6Z" fill="white"/>
<path d="M39.2 12.8H0.8C0.358437 12.8 0 13.1584 0 13.6V16.8C0 17.2417 0.358437 17.6 0.8 17.6H39.2C39.6416 17.6 40 17.2417 40 16.8V13.6C40 13.1584 39.6416 12.8 39.2 12.8ZM38.4 16H1.6V14.4H38.4V16ZM21.6 22.4H7.2C6.75844 22.4 6.4 22.7585 6.4 23.2C6.4 23.6416 6.75844 24 7.2 24H21.6C22.0416 24 22.4 23.6416 22.4 23.2C22.4 22.7584 22.0416 22.4 21.6 22.4ZM15.2 25.6H7.2C6.75844 25.6 6.4 25.9585 6.4 26.4001C6.4 26.8416 6.75844 27.2 7.2 27.2H15.2C15.6416 27.2 16 26.8416 16 26.4001C16 25.9585 15.6416 25.6 15.2 25.6Z" fill="white"/>
</svg>
