<svg width="36" height="18" viewBox="0 0 36 18" fill="none" xmlns="http://www.w3.org/2000/svg">
<path d="M25.5474 17H2.08694C1.95355 17 1.82562 16.947 1.7313 16.8527C1.63697 16.7584 1.58398 16.6304 1.58398 16.4971V11.8578C1.58398 11.7369 1.68341 11.6422 1.80431 11.6424H1.80656C3.26588 11.6424 4.44892 10.4593 4.44892 9C4.44892 7.54068 3.26581 6.35765 1.80656 6.35765H1.80431C1.68341 6.35778 1.58398 6.26311 1.58398 6.14221V1.50296C1.58398 1.36956 1.63697 1.24164 1.7313 1.14731C1.82562 1.05299 1.95355 1 2.08694 1H33.913C34.0464 1 34.1743 1.05299 34.2687 1.14731C34.363 1.24164 34.416 1.36956 34.416 1.50296V6.14221C34.416 6.26311 34.3165 6.35778 34.1956 6.35765H34.1934C32.7341 6.35765 31.551 7.54068 31.551 9C31.551 10.4593 32.7341 11.6424 34.1934 11.6424H34.1956C34.3165 11.6422 34.416 11.7369 34.416 11.8578V16.4971C34.416 16.6304 34.363 16.7584 34.2687 16.8527C34.1743 16.947 34.0464 17 33.913 17H27.8156" stroke="white" stroke-width="2" stroke-miterlimit="10" stroke-linecap="round" stroke-linejoin="round"/>
<path d="M9.64687 3.96633C10.3919 3.60013 11.2301 3.39453 12.1163 3.39453C15.2121 3.39453 17.7218 5.90423 17.7218 9.00006C17.7218 12.0959 15.2121 14.6056 12.1163 14.6056C9.02044 14.6056 6.51074 12.0958 6.51074 8.99999C6.51074 7.62385 7.00663 6.36345 7.82954 5.38793M13.4738 5.76529L10.7587 12.2347" stroke="white" stroke-width="2" stroke-miterlimit="10" stroke-linecap="round" stroke-linejoin="round"/>
<path d="M10.2863 7.8964C10.8748 7.8964 11.3518 7.41933 11.3518 6.83083C11.3518 6.24233 10.8748 5.76526 10.2863 5.76526C9.69778 5.76526 9.2207 6.24233 9.2207 6.83083C9.2207 7.41933 9.69778 7.8964 10.2863 7.8964Z" stroke="white" stroke-width="2" stroke-miterlimit="10" stroke-linecap="round" stroke-linejoin="round"/>
<path d="M13.9484 12.2347C14.5369 12.2347 15.014 11.7576 15.014 11.1691C15.014 10.5806 14.5369 10.1035 13.9484 10.1035C13.3599 10.1035 12.8828 10.5806 12.8828 11.1691C12.8828 11.7576 13.3599 12.2347 13.9484 12.2347Z" stroke="white" stroke-width="2" stroke-miterlimit="10" stroke-linecap="round" stroke-linejoin="round"/>
<path d="M20.5088 6.39398H29.4879M20.5088 8.46619H26.8453M20.5088 4.31543H24.6304M29.2415 13.6844H20.7553C20.6899 13.6844 20.6272 13.6585 20.581 13.6122C20.5348 13.566 20.5088 13.5033 20.5088 13.438V11.2668C20.5088 11.2014 20.5348 11.1387 20.581 11.0925C20.6272 11.0463 20.6899 11.0203 20.7553 11.0203H29.2415C29.3068 11.0203 29.3695 11.0463 29.4158 11.0925C29.462 11.1387 29.4879 11.2014 29.4879 11.2668V13.438C29.4879 13.574 29.3776 13.6844 29.2415 13.6844Z" stroke="white" stroke-width="2" stroke-miterlimit="10" stroke-linecap="round" stroke-linejoin="round"/>
</svg>
