<svg width="108" height="108" viewBox="0 0 108 108" fill="none" xmlns="http://www.w3.org/2000/svg">
<path d="M15.3984 20.4061H10.5237M44.0269 20.4061H27.1814M80.8186 20.4061H63.9731M97.4763 20.4061H92.6016M69.1352 44.3705C66.9083 38.8557 67.2598 31.232 67.6084 25.9212M40.3916 25.9215C40.7403 31.2322 41.0917 38.8559 38.8648 44.3707M60.9398 29.3899C61.1972 30.4931 61.3343 31.6765 61.3343 32.9083C61.3343 38.9222 58.05 43.7969 54 43.7969C49.95 43.7969 46.6657 38.9222 46.6657 32.9083C46.6657 31.6765 46.8028 30.4931 47.0602 29.3899" stroke="#5ADFC2" stroke-width="3" stroke-miterlimit="10" stroke-linecap="round" stroke-linejoin="round"/>
<path d="M91.0385 23.8739V44.8769C91.0385 48.3448 87.404 49.6716 84.3243 48.0832C80.3228 46.0139 76.4226 43.6198 72.7692 40.5548C72.1596 40.0444 71.2272 40.2933 70.9488 41.04C70.5691 42.0518 70.0654 43.0126 69.449 43.9003C67.6181 46.5328 66.711 49.699 66.711 52.9052V54.3248M16.9614 23.8739V44.8769C16.9614 48.3448 20.5959 49.6716 23.6756 48.0832C27.6771 46.0139 31.5773 43.6198 35.2307 40.5548C35.8403 40.0444 36.7727 40.2933 37.0511 41.04C37.4329 42.0588 37.9392 43.0186 38.5509 43.9003C40.3818 46.5328 41.2888 49.699 41.2888 52.9052V54.3248" stroke="#5ADFC2" stroke-width="3" stroke-miterlimit="10" stroke-linecap="round" stroke-linejoin="round"/>
<path d="M23.9478 24.4308V34.0516C23.9478 34.5326 24.5869 34.6929 24.821 34.2731C26.6604 30.972 29.1178 28.7487 31.995 27.2595C33.7099 26.3735 35.6147 25.9221 37.5448 25.9221H44.626M84.0523 24.4308V34.0516C84.0523 34.5326 83.4131 34.6929 83.179 34.2731C81.2763 30.8602 78.7156 28.5968 75.7076 27.1097C74.0813 26.306 72.2799 25.9221 70.4658 25.9221H63.3741" stroke="#5ADFC2" stroke-width="3" stroke-miterlimit="10" stroke-linecap="round" stroke-linejoin="round"/>
<path d="M67.9808 54.1666L67.5779 54.2025C67.2847 54.2278 66.996 54.2689 66.711 54.3248C64.1795 54.8214 61.9902 56.449 60.8153 58.7798C60.5727 59.2605 60.2016 59.6644 59.7432 59.9466C59.2847 60.2289 58.757 60.3785 58.2186 60.3787H49.7811C48.6843 60.3787 47.6802 59.7607 47.1845 58.7798C46.0096 56.449 43.8203 54.8214 41.2888 54.3248C41.0022 54.2685 40.7128 54.2277 40.4218 54.2025L40.019 54.1666M42.9468 72.8219C44.9633 73.9062 47.2689 74.5221 49.72 74.5221H58.2798C60.7309 74.5221 63.0365 73.9062 65.053 72.8219M80.8183 20.9866V18.7226C80.8183 17.246 82.0151 16.0492 83.4917 16.0492H89.9272C91.4037 16.0492 92.6006 17.246 92.6006 18.7226V20.9866C92.6006 22.8922 91.0559 24.4369 89.1503 24.4369H84.2684C82.363 24.4369 80.8183 22.8922 80.8183 20.9866ZM27.1815 20.9866V18.7226C27.1815 17.246 25.9846 16.0492 24.5081 16.0492H18.0726C16.596 16.0492 15.3992 17.246 15.3992 18.7226V20.9866C15.3992 22.8922 16.9439 24.4369 18.8495 24.4369H23.7314C25.6368 24.4369 27.1815 22.8922 27.1815 20.9866ZM54.8384 8.64273H53.1612C48.1166 8.64273 44.027 12.7322 44.027 17.777V22.7279C44.027 23.9865 44.2959 25.2305 44.8158 26.3767C45.3357 27.5229 46.0945 28.5448 47.0415 29.3739L48.976 31.0677C49.9954 31.9603 51.3044 32.4524 52.6594 32.4523H55.3396C56.6946 32.4523 58.0034 31.9603 59.0229 31.0677C59.8418 30.1092 63.9722 27.9408 63.9722 22.7279V17.777C63.9726 12.7322 59.8831 8.64273 54.8384 8.64273Z" stroke="#5ADFC2" stroke-width="3" stroke-miterlimit="10" stroke-linecap="round" stroke-linejoin="round"/>
<path d="M75.6835 80.2282V79.8365C75.6835 77.9138 75.9936 76.0035 76.6015 74.1795C77.455 71.6193 77.718 68.8991 77.371 66.2228L76.2824 57.8253C75.9398 55.1827 73.6891 53.205 71.0243 53.205C68.3596 53.205 66.1089 55.1827 65.7663 57.8253L64.6777 66.2228C64.3306 68.8991 64.5937 71.6193 65.4472 74.1795C66.0552 76.0036 66.3652 77.9137 66.3652 79.8365V91.0925H75.6833V87.611M66.3654 91.0927L64.9181 99.3317C64.5176 101.612 66.2717 103.701 68.5865 103.701H76.6519C78.709 103.701 80.3765 102.033 80.3765 99.9761C80.3765 99.3035 80.1942 98.6434 79.8493 98.0659L75.6835 91.0927M41.6346 91.0925L43.0819 99.3315C43.4824 101.611 41.7283 103.7 39.4135 103.7H31.3481C29.291 103.7 27.6235 102.033 27.6235 99.9759C27.6235 99.3032 27.8058 98.6432 28.1507 98.0657L32.3165 91.0925M1.58203 21.0269V34.3001C1.58203 35.5233 2.57365 36.515 3.79688 36.515H8.30798C9.53121 36.515 10.5228 35.5233 10.5228 34.3001V6.51416C10.5228 5.29093 9.53121 4.29932 8.30798 4.29932H3.79688C2.57365 4.29932 1.58203 5.29093 1.58203 6.51416V13.6441M30.629 66.2225L31.7176 57.8251C32.0602 55.1825 34.3109 53.2047 36.9757 53.2047C39.6404 53.2047 41.8911 55.1825 42.2337 57.8251L43.3223 66.2225C43.6694 68.8989 43.4063 71.6191 42.5528 74.1793C41.9448 76.0034 41.6348 77.9135 41.6348 79.8362V91.0923H32.3167V79.8362C32.3167 77.9135 32.0066 76.0033 31.3987 74.1793C30.5452 71.6191 30.282 68.8989 30.629 66.2225ZM97.4774 6.51416V34.2999C97.4774 35.5231 98.469 36.5147 99.6922 36.5147H104.203C105.426 36.5147 106.418 35.5231 106.418 34.2999V6.51416C106.418 5.29093 105.426 4.29932 104.203 4.29932H99.692C98.469 4.29932 97.4774 5.29093 97.4774 6.51416Z" stroke="#5ADFC2" stroke-width="3" stroke-miterlimit="10" stroke-linecap="round" stroke-linejoin="round"/>
</svg>
