<svg width="95" height="108" viewBox="0 0 95 108" fill="none" xmlns="http://www.w3.org/2000/svg">
<path d="M86.2103 50.5368V36.2407V56.2551M86.2103 56.2551C86.2103 58.1308 87.7229 59.6554 89.5985 59.6704C91.4953 59.6854 93.041 58.1521 93.041 56.2551V32.0441C93.041 28.2738 90.3421 25.0444 86.6317 24.3751L80.0827 23.1936M86.2103 56.2551V69.3535M80.0827 23.1936C78.596 27.1787 72.9594 27.1787 71.4727 23.1936L71.4645 23.1928L71.4642 23.1938L64.9153 24.3753C63.8477 24.5671 62.8321 24.9801 61.9337 25.5878M80.0827 23.1936L79.574 19.0401M71.4725 23.1934L71.9678 19.1497M2 41.3353V56.2545C2 58.1424 3.5293 59.6696 5.41086 59.6696H5.4425C7.31773 59.6548 8.83016 58.1318 8.83016 56.2545V36.2412M8.83079 69.2668V56.2551M14.9585 23.1934L15.4536 19.1497M23.5686 23.1934L23.0735 19.1497M54.9751 7.29844C54.0933 4.03524 51.1149 1.58414 47.5163 1.58203H47.5121C42.9474 1.58203 39.3826 5.52867 39.8382 10.0765L40.047 12.1605C40.212 13.8008 40.7915 15.3721 41.731 16.7267C42.6705 18.0813 43.9391 19.1747 45.4175 19.9041C46.0732 20.2275 46.7944 20.396 47.5255 20.3963C48.2567 20.3967 48.9781 20.229 49.6341 19.9062C51.1116 19.1781 52.3791 18.0855 53.3171 16.7316C53.7579 16.0966 54.1229 15.409 54.3992 14.6812M73.6747 19.9041C74.3304 20.2274 75.0517 20.3958 75.7828 20.3962C76.514 20.3966 77.2354 20.2289 77.8915 19.9062C79.3694 19.1785 80.6373 18.086 81.5755 16.7319C82.5138 15.3779 83.0913 13.807 83.2535 12.1677L83.4605 10.0853C83.9125 5.535 80.3413 1.58435 75.7737 1.58203C71.2061 1.57971 67.6389 5.52656 68.0956 10.0773L68.3046 12.1599C68.4692 13.8003 69.0484 15.3719 69.9879 16.7267C70.9273 18.0814 72.196 19.1749 73.6747 19.9041ZM21.3666 19.9041C20.7108 20.2274 19.9896 20.3958 19.2584 20.3962C18.5273 20.3966 17.8058 20.2289 17.1497 19.9062C15.6719 19.1785 14.4039 18.086 13.4657 16.7319C12.5275 15.3779 11.95 13.807 11.7877 12.1677L11.5808 10.0853C11.1285 5.535 14.6997 1.58435 19.2676 1.58203C23.8352 1.57971 27.4024 5.52656 26.9457 10.0773L26.7366 12.1599C26.5721 13.8003 25.9928 15.3719 25.0534 16.7266C24.1139 18.0814 22.8452 19.1749 21.3666 19.9041Z" stroke="#5ADFC2" stroke-width="3" stroke-miterlimit="10" stroke-linecap="round" stroke-linejoin="round"/>
<path d="M64.7231 31.0686C64.3039 27.7286 61.7604 24.9858 58.3747 24.3751L51.8257 23.1936C50.339 27.1787 44.7023 27.1787 43.2157 23.1936L36.6667 24.3751C33.263 24.9891 30.7104 27.7577 30.3118 31.1217M51.8255 23.1934L51.3304 19.1497M43.2154 23.1934L43.7105 19.1497" stroke="#5ADFC2" stroke-width="3" stroke-miterlimit="10" stroke-linecap="round" stroke-linejoin="round"/>
<path d="M47.6282 54.8248C48.5521 54.154 49.6363 53.6773 50.8239 53.4621L57.3735 52.2808C58.1181 54.2742 59.8984 55.2698 61.6787 55.2698C63.459 55.2698 65.2393 54.2742 65.984 52.2808L72.5336 53.4621C76.244 54.1308 78.9418 57.3602 78.9418 61.1318V70.0011M59.5757 48.9909C60.2314 49.3142 60.9527 49.4826 61.6839 49.483C62.415 49.4833 63.1365 49.3157 63.7925 48.993C65.2704 48.2652 66.5383 47.1728 67.4766 45.8187C68.4148 44.4647 68.9923 42.8938 69.1546 41.2545L69.3615 39.1721C69.8137 34.6218 66.2426 30.6711 61.6747 30.6688C57.1071 30.6665 53.5399 34.6134 53.9966 39.1641L54.2056 41.2467C54.3701 42.8871 54.9494 44.4587 55.8888 45.8135C56.8283 47.1683 58.097 48.2617 59.5757 48.9909Z" stroke="#5ADFC2" stroke-width="3" stroke-miterlimit="10" stroke-linecap="round" stroke-linejoin="round"/>
<path d="M78.9417 77.3839V85.3428C78.9417 87.2307 77.4103 88.7579 75.5266 88.7579H75.4992C73.624 88.7431 72.1115 87.218 72.1115 85.3428V65.3273M72.1115 98.4405L72.1111 85.3421M65.9834 52.2804L65.4797 48.1667M57.3733 52.2804L57.877 48.1667M50.5714 60.2049C50.1713 56.8426 47.6194 54.0759 44.2169 53.4619L37.668 52.2804M37.668 52.2804C36.1813 56.2655 30.5446 56.2655 29.0579 52.2804M37.668 52.2804L37.1548 48.0889M29.0579 52.2804L22.5089 53.4619C18.7986 54.1312 16.0996 57.3609 16.0996 61.1309V85.3419C16.0996 87.2387 17.6454 88.7722 19.5421 88.7572C21.4178 88.7424 22.9306 87.2176 22.9306 85.3419L22.9304 65.3275L22.9306 83.8428M29.0579 52.2804L29.5616 48.1667M22.9304 85.3985V98.4405M31.2601 48.9909C31.9159 49.3142 32.6371 49.4826 33.3683 49.483C34.0994 49.4833 34.8209 49.3157 35.477 48.993C36.9548 48.2652 38.2228 47.1728 39.161 45.8187C40.0992 44.4647 40.6767 42.8938 40.839 41.2545L41.0459 39.1721C41.4982 34.6218 37.927 30.6711 33.3591 30.6688C28.7915 30.6665 25.2243 34.6134 25.681 39.1641L25.8901 41.2467C26.0546 42.8871 26.6338 44.4587 27.5733 45.8135C28.5127 47.1683 29.7815 48.2617 31.2601 48.9909Z" stroke="#5ADFC2" stroke-width="3" stroke-miterlimit="10" stroke-linecap="round" stroke-linejoin="round"/>
<path d="M40.4204 72.1976C40.8075 73.4671 41.4506 74.6439 42.3101 75.6554C43.1695 76.6668 44.2271 77.4915 45.4175 78.0785C46.7485 78.7324 48.3052 78.7345 49.6341 78.0806C51.136 77.3423 52.3932 76.2412 53.3171 74.9081C54.241 73.575 54.8316 72.0098 54.9961 70.3413L55.2029 68.2594C55.6564 63.7094 52.0852 59.7586 47.5163 59.7565H47.5121C44.1603 59.7565 41.3464 61.8827 40.2706 64.8148M64.7839 106.418V90.2182C64.7839 86.4479 62.0849 83.2184 58.3745 82.5491L51.8255 81.3677C50.3389 85.3527 44.7022 85.3527 43.2155 81.3677L36.6665 82.5491C32.9561 83.2184 30.2572 86.4481 30.2572 90.2182V106.418M37.088 106.418L37.0878 94.4148M57.9533 106.418V94.4148M51.8255 81.3674L51.3322 77.3381M43.2155 81.3674L43.7089 77.3381M33.0991 25.5876C32.2008 24.9797 31.1851 24.5667 30.1175 24.3751L23.5686 23.1936L23.5684 23.1926C22.8238 25.1859 21.0434 26.1816 19.2631 26.1816C17.4828 26.1816 15.7025 25.1859 14.9579 23.1926L8.41039 24.3759C4.7 25.0446 2 28.2741 2 32.0435V33.9525" stroke="#5ADFC2" stroke-width="3" stroke-miterlimit="10" stroke-linecap="round" stroke-linejoin="round"/>
</svg>
