<svg width="42" height="42" viewBox="0 0 42 42" fill="none" xmlns="http://www.w3.org/2000/svg">
<path d="M34.1422 7.85781C30.3647 4.08047 25.3421 2 20 2C14.6579 2 9.63531 4.08039 5.85781 7.85781C2.08047 11.6353 0 16.6579 0 22C0 27.3421 2.08039 32.3647 5.85781 36.1422C9.63531 39.9195 14.6579 42 20 42C25.3421 42 30.3647 39.9196 34.1422 36.1422C37.9195 32.3647 40 27.3421 40 22C40 16.6579 37.9196 11.6353 34.1422 7.85781ZM8.68008 35.5388C9.34055 29.8564 14.2261 25.4693 20 25.4693C23.0438 25.4693 25.9061 26.6552 28.0591 28.8079C29.8779 30.627 31.0251 33.0022 31.3202 35.5385C28.2532 38.1072 24.3042 39.6562 20 39.6562C15.6958 39.6562 11.7471 38.1075 8.68008 35.5388ZM20 23.0552C16.6507 23.0552 13.9255 20.3301 13.9255 16.9808C13.9255 13.6312 16.6508 10.9062 20 10.9062C23.3492 10.9062 26.0745 13.6312 26.0745 16.9808C26.0745 20.3301 23.3493 23.0553 20 23.0553V23.0552ZM33.3374 33.5573C32.7352 31.1323 31.4832 28.9174 29.7162 27.1508C28.2758 25.7103 26.5716 24.6297 24.7131 23.9525C26.9473 22.4373 28.4183 19.8775 28.4183 16.9808C28.4183 12.3391 24.6417 8.5625 20 8.5625C15.3583 8.5625 11.5817 12.3391 11.5817 16.9808C11.5817 19.8791 13.0539 22.4398 15.2899 23.9547C13.58 24.5778 11.9977 25.5413 10.6363 26.8095C8.66484 28.6455 7.29586 30.9865 6.66109 33.5555C3.97281 30.4564 2.34375 26.415 2.34375 22C2.34375 12.2643 10.2643 4.34375 20 4.34375C29.7357 4.34375 37.6562 12.2643 37.6562 22C37.6562 26.4159 36.0266 30.4583 33.3374 33.5573Z" fill="white"/>
</svg>
