<svg width="30" height="30" viewBox="0 0 30 30" fill="none" xmlns="http://www.w3.org/2000/svg">
<path d="M21.5625 11.25H10.3125V8.16563C10.3125 6.99453 10.7777 5.8714 11.6058 5.04331C12.4339 4.21522 13.557 3.75 14.7281 3.75H15.2719C16.443 3.75 17.5661 4.21522 18.3942 5.04331C19.2223 5.8714 19.6875 6.99453 19.6875 8.16563C19.6875 8.41427 19.7863 8.65272 19.9621 8.82854C20.1379 9.00435 20.3764 9.10313 20.625 9.10313C20.8736 9.10313 21.1121 9.00435 21.2879 8.82854C21.4637 8.65272 21.5625 8.41427 21.5625 8.16563C21.56 6.49801 20.8965 4.8994 19.7173 3.72022C18.5381 2.54104 16.9395 1.87748 15.2719 1.875H14.7281C13.0605 1.87748 11.4619 2.54104 10.2827 3.72022C9.10354 4.8994 8.43998 6.49801 8.4375 8.16563V11.25C7.69158 11.25 6.97621 11.5463 6.44876 12.0738C5.92132 12.6012 5.625 13.3166 5.625 14.0625V22.7812C5.62748 24.1977 6.19128 25.5555 7.19289 26.5571C8.1945 27.5587 9.55226 28.1225 10.9688 28.125H19.0312C20.4477 28.1225 21.8055 27.5587 22.8071 26.5571C23.8087 25.5555 24.3725 24.1977 24.375 22.7812V14.0625C24.375 13.3166 24.0787 12.6012 23.5512 12.0738C23.0238 11.5463 22.3084 11.25 21.5625 11.25ZM22.5 22.7812C22.5 23.7012 22.1345 24.5835 21.484 25.234C20.8335 25.8845 19.9512 26.25 19.0312 26.25H10.9688C10.0488 26.25 9.16649 25.8845 8.51597 25.234C7.86546 24.5835 7.5 23.7012 7.5 22.7812V14.0625C7.5 13.8139 7.59877 13.5754 7.77459 13.3996C7.9504 13.2238 8.18886 13.125 8.4375 13.125H21.5625C21.8111 13.125 22.0496 13.2238 22.2254 13.3996C22.4012 13.5754 22.5 13.8139 22.5 14.0625V22.7812ZM15.9375 19.425V22.5C15.9375 22.7486 15.8387 22.9871 15.6629 23.1629C15.4871 23.3387 15.2486 23.4375 15 23.4375C14.7514 23.4375 14.5129 23.3387 14.3371 23.1629C14.1613 22.9871 14.0625 22.7486 14.0625 22.5V19.425C13.705 19.2186 13.4257 18.9001 13.2677 18.5187C13.1098 18.1374 13.0821 17.7146 13.1889 17.3159C13.2957 16.9172 13.5311 16.5649 13.8586 16.3137C14.186 16.0624 14.5872 15.9262 15 15.9262C15.4128 15.9262 15.814 16.0624 16.1414 16.3137C16.4689 16.5649 16.7043 16.9172 16.8111 17.3159C16.9179 17.7146 16.8902 18.1374 16.7323 18.5187C16.5743 18.9001 16.295 19.2186 15.9375 19.425Z" fill="white"/>
</svg>
