<svg width="40" height="40" viewBox="0 0 40 40" fill="none" xmlns="http://www.w3.org/2000/svg">
<path d="M37.5438 28.2425C37.4775 28.1875 29.9825 22.8475 27.9588 23.1812C26.9825 23.3538 26.425 24.02 25.3063 25.3525C24.997 25.7235 24.6806 26.0885 24.3575 26.4475C23.6504 26.2171 22.9607 25.9364 22.2937 25.6075C18.8507 23.9313 16.0687 21.1493 14.3925 17.7062C14.0636 17.0393 13.7829 16.3496 13.5525 15.6425C13.92 15.3062 14.435 14.8725 14.655 14.6875C15.9812 13.575 16.6462 13.0162 16.8188 12.0387C17.1725 10.015 11.8125 2.5225 11.7575 2.455C11.5134 2.10882 11.1955 1.82116 10.8267 1.61277C10.4579 1.40439 10.0475 1.28048 9.625 1.25C7.4525 1.25 1.25 9.295 1.25 10.6512C1.25 10.73 1.36375 18.735 11.235 28.7762C21.265 38.6362 29.27 38.75 29.3488 38.75C30.7038 38.75 38.75 32.5475 38.75 30.375C38.7192 29.9525 38.595 29.542 38.3864 29.1732C38.1778 28.8045 37.89 28.4866 37.5438 28.2425ZM29.21 36.2425C28.125 36.15 21.4 35.2638 13 27.0125C4.70875 18.5713 3.845 11.835 3.75875 10.7913C5.39722 8.21955 7.37599 5.88128 9.64125 3.84C9.69125 3.89 9.7575 3.965 9.8425 4.0625C11.5798 6.43404 13.0763 8.97284 14.31 11.6412C13.9088 12.0448 13.4848 12.4251 13.04 12.78C12.3502 13.3056 11.7169 13.9013 11.15 14.5575C11.0541 14.6921 10.9858 14.8443 10.9491 15.0055C10.9124 15.1666 10.9081 15.3334 10.9362 15.4963C11.2008 16.6422 11.6059 17.751 12.1425 18.7975C14.0649 22.745 17.2547 25.9344 21.2025 27.8563C22.2488 28.3936 23.3577 28.7992 24.5037 29.0637C24.6666 29.0919 24.8334 29.0876 24.9945 29.0509C25.1557 29.0142 25.3079 28.9459 25.4425 28.85C26.1011 28.2808 26.6988 27.6449 27.2262 26.9525C27.6187 26.485 28.1425 25.8612 28.3413 25.685C31.0164 26.9175 33.5609 28.4158 35.9362 30.1575C36.04 30.245 36.1138 30.3125 36.1625 30.3563C34.1211 32.6222 31.7824 34.6015 29.21 36.24V36.2425Z" fill="white"/>
<path d="M21.25 11.25C23.2385 11.252 25.145 12.0428 26.5511 13.4489C27.9572 14.855 28.748 16.7615 28.75 18.75C28.75 19.0815 28.8817 19.3995 29.1161 19.6339C29.3505 19.8683 29.6685 20 30 20C30.3315 20 30.6495 19.8683 30.8839 19.6339C31.1183 19.3995 31.25 19.0815 31.25 18.75C31.247 16.0987 30.1925 13.5569 28.3178 11.6822C26.4431 9.8075 23.9013 8.75298 21.25 8.75C20.9185 8.75 20.6005 8.8817 20.3661 9.11612C20.1317 9.35054 20 9.66848 20 10C20 10.3315 20.1317 10.6495 20.3661 10.8839C20.6005 11.1183 20.9185 11.25 21.25 11.25Z" fill="white"/>
<path d="M21.25 5C24.8954 5.0043 28.3903 6.45434 30.968 9.03203C33.5457 11.6097 34.9957 15.1046 35 18.75C35 19.0815 35.1317 19.3995 35.3661 19.6339C35.6005 19.8683 35.9185 20 36.25 20C36.5815 20 36.8995 19.8683 37.1339 19.6339C37.3683 19.3995 37.5 19.0815 37.5 18.75C37.495 14.4418 35.7814 10.3114 32.735 7.265C29.6886 4.2186 25.5582 2.50496 21.25 2.5C20.9185 2.5 20.6005 2.6317 20.3661 2.86612C20.1317 3.10054 20 3.41848 20 3.75C20 4.08152 20.1317 4.39946 20.3661 4.63388C20.6005 4.8683 20.9185 5 21.25 5Z" fill="white"/>
</svg>
