<svg width="40" height="40" viewBox="0 0 40 40" fill="none" xmlns="http://www.w3.org/2000/svg">
<path fill-rule="evenodd" clip-rule="evenodd" d="M33.066 29.989C33.066 35.4823 25.5327 36.1173 19.8677 36.1173L19.4623 36.117C15.853 36.1082 6.66602 35.8803 6.66602 29.9557C6.66602 24.5744 13.8966 23.8553 19.5185 23.8282L20.2731 23.8277C23.8821 23.8364 33.066 24.0643 33.066 29.989ZM19.8677 26.3273C12.766 26.3273 9.16602 27.5473 9.16602 29.9557C9.16602 32.3857 12.766 33.6173 19.8677 33.6173C26.9677 33.6173 30.566 32.3973 30.566 29.989C30.566 27.559 26.9677 26.3273 19.8677 26.3273ZM19.8677 3C24.7477 3 28.716 6.97 28.716 11.85C28.716 16.73 24.7477 20.6983 19.8677 20.6983H19.8143C14.9443 20.6833 10.9993 16.7117 11.016 11.845C11.016 6.97 14.986 3 19.8677 3ZM19.8677 5.38C16.2993 5.38 13.396 8.28167 13.396 11.85C13.3843 15.4067 16.266 18.3067 19.8193 18.32L19.8677 19.51V18.32C23.4343 18.32 26.336 15.4167 26.336 11.85C26.336 8.28167 23.4343 5.38 19.8677 5.38Z" fill="white"/>
</svg>
