<svg width="38" height="38" viewBox="0 0 38 38" fill="none" xmlns="http://www.w3.org/2000/svg">
<g clip-path="url(#clip0_78_2329)">
<path d="M33.4229 30.8282C35.053 28.1726 35.9139 25.1165 35.9097 22.0004C35.914 18.8843 35.0531 15.8277 33.4229 13.1719L33.4138 13.1571C31.9015 10.6921 29.7823 8.65614 27.2588 7.24375C24.7352 5.83135 21.8916 5.08972 18.9997 5.08972C16.1077 5.08972 13.2641 5.83135 10.7406 7.24375C8.21701 8.65614 6.09782 10.6921 4.5855 13.1571L4.57638 13.1719C2.95032 15.8295 2.08984 18.8845 2.08984 22.0001C2.08984 25.1156 2.95032 28.1707 4.57638 30.8282L4.58588 30.8434C6.09825 33.3083 8.21746 35.3441 10.741 36.7564C13.2645 38.1688 16.1081 38.9103 19 38.9103C21.8918 38.9102 24.7354 38.1686 27.2589 36.7562C29.7824 35.3439 31.9015 33.308 33.4138 30.843L33.4229 30.8282ZM21.1611 36.0118C20.8388 36.3228 20.4679 36.579 20.0629 36.7703C19.7306 36.9282 19.3674 37.0101 18.9995 37.0101C18.6316 37.0101 18.2683 36.9282 17.936 36.7703C17.1656 36.3768 16.5061 35.7964 16.0178 35.0823C15.0206 33.6412 14.2817 32.0377 13.8339 30.3433C15.5541 30.2374 17.276 30.1835 18.9997 30.1815C20.7226 30.1815 22.4446 30.2354 24.1658 30.3433C23.9179 31.2144 23.6083 32.0668 23.2393 32.8939C22.7535 34.0571 22.0478 35.1158 21.1611 36.0118ZM4.02272 22.9501H10.8433C10.8878 24.8532 11.0941 26.7492 11.4601 28.6174C9.59555 28.7815 7.73583 29.007 5.88092 29.2938C4.79459 27.3449 4.15959 25.177 4.02272 22.9501ZM5.88092 14.7067C7.73507 14.994 9.59542 15.2195 11.462 15.3831C11.0954 17.2511 10.8887 19.147 10.8441 21.0501H4.02272C4.15964 18.8232 4.79465 16.6555 5.88092 14.7067ZM16.8382 7.98832C17.1605 7.67732 17.5315 7.42111 17.9364 7.22984C18.2687 7.07196 18.632 6.99005 18.9999 6.99005C19.3677 6.99005 19.731 7.07196 20.0633 7.22984C20.8337 7.62334 21.4932 8.20368 21.9815 8.9178C22.9787 10.3589 23.7177 11.9625 24.1654 13.6568C22.4452 13.7627 20.7233 13.8166 18.9997 13.8187C17.2767 13.8187 15.5547 13.7647 13.8336 13.6568C14.0814 12.7857 14.391 11.9333 14.76 11.1062C15.2459 9.94299 15.9515 8.88436 16.8382 7.98832ZM33.9766 21.0501H27.156C27.1115 19.1469 26.9052 17.2509 26.5392 15.3827C28.4038 15.2186 30.2635 14.9931 32.1184 14.7063C33.2047 16.6552 33.8397 18.8231 33.9766 21.0501ZM13.3711 28.4696C12.9996 26.6518 12.7898 24.8048 12.7441 22.9501H25.2556C25.2104 24.8049 25.0009 26.6521 24.6297 28.4699C22.7551 28.3468 20.8784 28.284 18.9997 28.2815C17.1225 28.2815 15.2463 28.3442 13.3711 28.4696ZM24.6282 15.5306C24.9997 17.3483 25.2096 19.1953 25.2552 21.0501H12.7441C12.7893 19.1952 12.9988 17.348 13.37 15.5302C15.2446 15.6533 17.1213 15.7161 19 15.7187C20.8772 15.7187 22.7534 15.6558 24.6286 15.5302L24.6282 15.5306ZM27.1552 22.9501H33.9766C33.8397 25.1769 33.2047 27.3446 32.1184 29.2934C30.264 29.0061 28.4036 28.7807 26.5373 28.617C26.904 26.749 27.1107 24.8532 27.1552 22.9501ZM30.9792 12.958C29.3578 13.1918 27.7318 13.377 26.1011 13.5135C25.808 12.4222 25.4301 11.3554 24.9706 10.323C24.5511 9.37306 24.0232 8.47474 23.3974 7.64594C26.4213 8.57339 29.0749 10.4325 30.9792 12.958ZM8.38626 11.3863C10.1209 9.64995 12.2551 8.36564 14.6015 7.64594C14.5658 7.6923 14.5293 7.73638 14.4944 7.78312C13.2883 9.5193 12.4097 11.4614 11.902 13.5135C10.2711 13.3755 8.6439 13.1903 7.02054 12.958C7.43916 12.4033 7.89548 11.8782 8.38626 11.3863ZM7.02054 31.0422C8.64162 30.8083 10.2676 30.6231 11.8986 30.4866C12.1917 31.5779 12.5696 32.6447 13.0291 33.6771C13.4487 34.627 13.9766 35.5254 14.6023 36.3542C11.5784 35.4267 8.92486 33.5676 7.02054 31.0422ZM29.6138 32.6138C27.8792 34.3502 25.745 35.6345 23.3985 36.3542C23.4343 36.3078 23.4707 36.2637 23.5057 36.217C24.7118 34.4808 25.5904 32.5388 26.0981 30.4866C27.729 30.6247 29.3562 30.8099 30.9795 31.0422C30.5609 31.5968 30.1046 32.1219 29.6138 32.6138Z" fill="white"/>
</g>
<defs>
<clipPath id="clip0_78_2329">
<rect width="38" height="38" fill="white"/>
</clipPath>
</defs>
</svg>
