<svg width="70" height="70" viewBox="0 0 70 70" fill="none" xmlns="http://www.w3.org/2000/svg">
<path d="M43.5474 43H20.0869C19.9535 43 19.8256 42.947 19.7313 42.8527C19.637 42.7584 19.584 42.6304 19.584 42.4971V37.8578C19.584 37.7369 19.6834 37.6422 19.8043 37.6424H19.8066C21.2659 37.6424 22.4489 36.4593 22.4489 35C22.4489 33.5407 21.2658 32.3576 19.8066 32.3576H19.8043C19.6834 32.3578 19.584 32.2631 19.584 32.1422V27.503C19.584 27.3696 19.637 27.2416 19.7313 27.1473C19.8256 27.053 19.9535 27 20.0869 27H51.913C52.0464 27 52.1743 27.053 52.2687 27.1473C52.363 27.2416 52.416 27.3696 52.416 27.503V32.1422C52.416 32.2631 52.3165 32.3578 52.1956 32.3576H52.1934C50.7341 32.3576 49.551 33.5407 49.551 35C49.551 36.4593 50.7341 37.6424 52.1934 37.6424H52.1956C52.3165 37.6422 52.416 37.7369 52.416 37.8578V42.4971C52.416 42.6304 52.363 42.7584 52.2687 42.8527C52.1743 42.947 52.0464 43 51.913 43H45.8156" stroke="white" stroke-width="2" stroke-miterlimit="10" stroke-linecap="round" stroke-linejoin="round"/>
<path d="M27.6469 29.9663C28.3919 29.6001 29.2301 29.3945 30.1163 29.3945C33.2121 29.3945 35.7218 31.9042 35.7218 35.0001C35.7218 38.0959 33.2121 40.6056 30.1163 40.6056C27.0204 40.6056 24.5107 38.0958 24.5107 35C24.5107 33.6238 25.0066 32.3634 25.8295 31.3879M31.4738 31.7653L28.7587 38.2347" stroke="white" stroke-width="2" stroke-miterlimit="10" stroke-linecap="round" stroke-linejoin="round"/>
<path d="M28.2863 33.8964C28.8748 33.8964 29.3518 33.4193 29.3518 32.8308C29.3518 32.2423 28.8748 31.7653 28.2863 31.7653C27.6978 31.7653 27.2207 32.2423 27.2207 32.8308C27.2207 33.4193 27.6978 33.8964 28.2863 33.8964Z" stroke="white" stroke-width="2" stroke-miterlimit="10" stroke-linecap="round" stroke-linejoin="round"/>
<path d="M31.9484 38.2347C32.5369 38.2347 33.014 37.7576 33.014 37.1691C33.014 36.5806 32.5369 36.1035 31.9484 36.1035C31.3599 36.1035 30.8828 36.5806 30.8828 37.1691C30.8828 37.7576 31.3599 38.2347 31.9484 38.2347Z" stroke="white" stroke-width="2" stroke-miterlimit="10" stroke-linecap="round" stroke-linejoin="round"/>
<path d="M38.5088 32.394H47.4879M38.5088 34.4662H44.8453M38.5088 30.3154H42.6304M47.2415 39.6844H38.7553C38.6899 39.6844 38.6272 39.6585 38.581 39.6122C38.5348 39.566 38.5088 39.5033 38.5088 39.438V37.2668C38.5088 37.2014 38.5348 37.1387 38.581 37.0925C38.6272 37.0463 38.6899 37.0203 38.7553 37.0203H47.2415C47.3068 37.0203 47.3695 37.0463 47.4158 37.0925C47.462 37.1387 47.4879 37.2014 47.4879 37.2668V39.438C47.4879 39.574 47.3776 39.6844 47.2415 39.6844Z" stroke="white" stroke-width="2" stroke-miterlimit="10" stroke-linecap="round" stroke-linejoin="round"/>
</svg>
