<svg width="21" height="21" viewBox="0 0 21 21" fill="none" xmlns="http://www.w3.org/2000/svg">
<g id="&#240;&#159;&#166;&#134; icon &#34;Alternate Phone&#34;">
<path id="Vector" d="M19.2869 19.524C19.2386 19.7333 19.1207 19.9201 18.9525 20.0537C18.7843 20.1874 18.5758 20.2601 18.3609 20.26C8.22681 20.26 0 12.049 0 1.89905L5.16797 8.07648C6.62031 11.1568 9.09925 13.6357 12.1796 15.0881L14.1423 12.6901C14.2724 12.5306 14.4509 12.4178 14.6507 12.3686M19.2869 19.524L20.2366 15.4086M19.2869 19.524L18.7023 19.389L19.6512 15.277L20.2366 15.4086M19.2869 19.524L18.7023 19.3891C18.6845 19.4661 18.6411 19.5348 18.5792 19.584C18.5172 19.6333 18.4404 19.66 18.3613 19.66H18.3609C8.55784 19.66 0.6 11.7173 0.6 1.89905L0.6 1.89891C0.599982 1.81983 0.626771 1.74308 0.675993 1.68118C0.725197 1.6193 0.793914 1.57592 0.870936 1.55812L15.0145 12.9688M20.2366 15.4086C20.2856 15.1905 20.2571 14.9621 20.1559 14.7628C20.0547 14.5634 19.8872 14.4056 19.6822 14.3164M20.2366 15.4086L19.652 15.2737L19.6515 15.2758C19.6695 15.1942 19.6587 15.1089 19.6209 15.0343C19.583 14.9598 19.5205 14.9007 19.4439 14.8671L19.4459 14.8679L19.6822 14.3164M19.6822 14.3164L15.2503 12.417M19.6822 14.3164L19.4429 14.8666L15.015 12.969L15.2503 12.417M15.2503 12.417C15.0609 12.3363 14.8505 12.3193 14.6507 12.3686M15.2503 12.417L15.0139 12.9685L15.0145 12.9688M14.6507 12.3686L14.7943 12.9511C14.8677 12.9331 14.9449 12.9392 15.0145 12.9688M14.6507 12.3686L14.7943 12.9511C14.7207 12.9693 14.655 13.0108 14.607 13.0695L14.6066 13.0701L12.6439 15.4681L12.3473 15.8305L11.9237 15.6308C8.71736 14.119 6.13702 11.5387 4.62527 8.33236L4.42556 7.90878L4.78795 7.61217L7.18595 5.64945L7.18738 5.64827C7.24595 5.60064 7.28741 5.53522 7.30547 5.46192C7.32353 5.38862 7.31722 5.31143 7.28749 5.24204M15.0145 12.9688L7.28753 5.24212L7.28749 5.24204M7.28749 5.24204L5.38907 0.812378M7.28749 5.24204L5.38907 0.812378M5.38907 0.812378C5.35582 0.736998 5.29746 0.675463 5.22391 0.638285C5.15015 0.601005 5.06574 0.590548 4.98513 0.608689C4.98488 0.608745 4.98463 0.608801 4.98439 0.608856L0.87102 1.5581L5.38907 0.812378Z" stroke="#575757" stroke-width="1.2"/>
</g>
</svg>
