<svg width="40" height="40" viewBox="0 0 40 40" fill="none" xmlns="http://www.w3.org/2000/svg">
<g id="Category">
<g id="Iconly/Light-Outline/Category">
<g id="Category_2">
<path id="Combined-Shape" fill-rule="evenodd" clip-rule="evenodd" d="M10.4163 21.6668C17.198 21.6668 17.4997 23.9668 17.4997 28.7502C17.4997 31.1468 17.4997 32.8518 16.493 34.1002C15.3347 35.5385 13.2263 35.8335 10.4163 35.8335C7.60634 35.8335 5.49801 35.5385 4.33967 34.1002C3.33301 32.8518 3.33301 31.1485 3.33301 28.7918L4.58301 28.7502H3.33301C3.33301 23.9668 3.63467 21.6668 10.4163 21.6668ZM28.7497 21.6668C35.5313 21.6668 35.833 23.9668 35.833 28.7502C35.833 31.1468 35.833 32.8518 34.8263 34.1002C33.668 35.5385 31.5597 35.8335 28.7497 35.8335C25.9397 35.8335 23.8313 35.5385 22.673 34.1002C21.6663 32.8518 21.6663 31.1485 21.6663 28.7918L22.9163 28.7502H21.6663C21.6663 23.9668 21.968 21.6668 28.7497 21.6668ZM10.7599 24.1676L10.4163 24.1668C6.06805 24.1668 5.84506 24.4789 5.83363 28.1286L5.83432 29.5505C5.84223 31.0021 5.89753 32.0506 6.28467 32.5335C6.72634 33.0802 8.03801 33.3335 10.4163 33.3335C12.7947 33.3335 14.1063 33.0785 14.548 32.5318C14.9997 31.9702 14.9997 30.6368 14.9997 28.7902C14.9997 24.6232 14.9997 24.1872 10.7599 24.1676ZM29.0933 24.1676L28.7497 24.1668C24.4014 24.1668 24.1784 24.4789 24.167 28.1286L24.1677 29.5505C24.1756 31.0021 24.2309 32.0506 24.618 32.5335C25.0597 33.0802 26.3713 33.3335 28.7497 33.3335C31.128 33.3335 32.4397 33.0785 32.8813 32.5318C33.333 31.9702 33.333 30.6368 33.333 28.7902C33.333 24.6232 33.333 24.1872 29.0933 24.1676ZM10.4163 3.3335C17.198 3.3335 17.4997 5.6335 17.4997 10.4168C17.4997 12.8135 17.4997 14.5185 16.493 15.7668C15.3347 17.2052 13.2263 17.5002 10.4163 17.5002C7.60634 17.5002 5.49801 17.2052 4.33967 15.7668C3.33301 14.5185 3.33301 12.8152 3.33301 10.4585L4.58301 10.4168H3.33301C3.33301 5.6335 3.63467 3.3335 10.4163 3.3335ZM28.7497 3.3335C35.5313 3.3335 35.833 5.6335 35.833 10.4168C35.833 12.8135 35.833 14.5185 34.8263 15.7668C33.668 17.2052 31.5597 17.5002 28.7497 17.5002C25.9397 17.5002 23.8313 17.2052 22.673 15.7668C21.6663 14.5185 21.6663 12.8152 21.6663 10.4585L22.9163 10.4168H21.6663C21.6663 5.6335 21.968 3.3335 28.7497 3.3335ZM10.7599 5.83424L10.4163 5.8335C6.06805 5.8335 5.84506 6.14552 5.83363 9.79525L5.83432 11.2171C5.84223 12.6687 5.89753 13.7173 6.28467 14.2002C6.72634 14.7468 8.03801 15.0002 10.4163 15.0002C12.7947 15.0002 14.1063 14.7452 14.548 14.1985C14.9997 13.6368 14.9997 12.3035 14.9997 10.4568C14.9997 6.28982 14.9997 5.85386 10.7599 5.83424ZM29.0933 5.83424L28.7497 5.8335C24.4014 5.8335 24.1784 6.14552 24.167 9.79525L24.1677 11.2171C24.1756 12.6687 24.2309 13.7173 24.618 14.2002C25.0597 14.7468 26.3713 15.0002 28.7497 15.0002C31.128 15.0002 32.4397 14.7452 32.8813 14.1985C33.333 13.6368 33.333 12.3035 33.333 10.4568C33.333 6.28982 33.333 5.85386 29.0933 5.83424Z" fill="white"/>
</g>
</g>
</g>
</svg>
